# xmcd
#
# Track frame offsets: 
#        150
#        54913
#        91902
#        136973
#        225850
#        276312
#
# Disc length: 4091 seconds
#
# Revision: 16
# Processed by: cddbd v1.5.2PL0 Copyright (c) Steve Scherf et al.
# Submitted via: ExactAudioCopy v1.0b1
#
DISCID=430ff906
DTITLE=Keith Jarrett Trio - The Out-Of-Towners
DYEAR=2004
DGENRE=Jazz
TTITLE0=Intro - I Can't Believe That You're In Love With Me
TTITLE1=You've Changed
TTITLE2=I Love You
TTITLE3=The Out-Of-Towners
TTITLE4=Five Brothers
TTITLE5=It's All In The Game
EXTD=Keith Jarrett: piano\nGary Peacock: double-bass\nJack DeJohnette:
EXTD=drums\n\nRecorded live at State Opera, Munich, July 28, 2001\nRe
EXTD=cording Engineer: Martin Pearson\nProduced by Manfred Eicher YEAR
EXTD=: 2004
EXTT0=Keith Jarrett (Intro) - Clarence Gaskill, Jimmy McHugh (I Can't B
EXTT0=elieve That You're In Love With Me)
EXTT1=Carls Fisher, Bill Carey
EXTT2=Cole Porter
EXTT3=Keith Jarrett
EXTT4=Gerry Mulligan
EXTT5=Charles Gates Dawes, Carl Sigman
PLAYORDER=
